<svg width="140" height="140" viewBox="0 0 140 140" fill="none" xmlns="http://www.w3.org/2000/svg">
<path fill-rule="evenodd" clip-rule="evenodd" d="M71.4771 29.6154C65.2614 29.6154 60.76 34.4582 60.76 39.7767C60.76 45.0952 65.2614 49.938 71.4771 49.938C77.6929 49.938 82.1942 45.0952 82.1942 39.7767C82.1942 34.4582 77.6929 29.6154 71.4771 29.6154ZM33.8369 39.7767C33.8369 19.0021 50.9859 2.69231 71.4771 2.69231C91.9684 2.69231 109.117 19.0021 109.117 39.7767C109.117 60.5512 91.9684 76.861 71.4771 76.861C50.9859 76.861 33.8369 60.5512 33.8369 39.7767Z" fill="#F2F1F0"/>
<path fill-rule="evenodd" clip-rule="evenodd" d="M71.3461 109.846C55.8157 109.846 43.0769 122.542 43.0769 138.385H16.1538C16.1538 107.837 40.7835 82.9231 71.3461 82.9231C101.682 82.9231 126.538 107.072 126.538 137.846H99.6153C99.6153 122.23 87.1036 109.846 71.3461 109.846Z" fill="#CBFA92"/>
</svg>
