<svg width="140" height="140" viewBox="0 0 140 140" fill="none" xmlns="http://www.w3.org/2000/svg">
<path fill-rule="evenodd" clip-rule="evenodd" d="M70.5385 43.6154C49.1269 43.6154 31.7693 26.2578 31.7693 4.84615L4.8462 4.84615C4.8462 41.127 34.2576 70.5385 70.5385 70.5385V43.6154Z" fill="#F2F1F0"/>
<path fill-rule="evenodd" clip-rule="evenodd" d="M70.5385 97.4615C49.1268 97.4615 31.7693 114.819 31.7693 136.231H4.84619C4.8462 99.9499 34.2576 70.5385 70.5385 70.5385V97.4615Z" fill="#F2F1F0"/>
<path fill-rule="evenodd" clip-rule="evenodd" d="M135.154 43.6154C109.074 43.6154 90.4615 24.9342 90.4615 4.84614L63.5384 4.84614C63.5384 42.4506 96.9983 70.5385 135.154 70.5385L135.154 43.6154Z" fill="#CBFA92"/>
<path fill-rule="evenodd" clip-rule="evenodd" d="M135.154 97.4615C109.074 97.4615 90.4615 116.143 90.4615 136.231L63.5384 136.231C63.5384 98.6263 96.9983 70.5384 135.154 70.5385L135.154 97.4615Z" fill="#CBFA92"/>
</svg>
