<svg width="38" height="38" viewBox="0 0 38 38" fill="none" xmlns="http://www.w3.org/2000/svg">
<rect width="38" height="38" rx="12" transform="matrix(-1 0 0 1 38 0)" fill="#222222"/>
<path d="M27 18.9744V18.8637H24.1544V18.9744C24.1544 18.983 24.1544 18.9915 24.1544 19C24.1544 21.8456 21.8456 24.1544 19 24.1544C16.1544 24.1544 13.8456 21.8456 13.8456 19C13.8456 16.1544 16.1544 13.8456 19 13.8456H19.0852V11H19C14.5868 11 11 14.5868 11 19C11 23.4132 14.5868 27 19 27C23.4132 27 27 23.4132 27 19C27 18.9915 27 18.983 27 18.9744Z" fill="white"/>
</svg>
