<svg width="84" height="22" viewBox="0 0 84 22" fill="none" xmlns="http://www.w3.org/2000/svg">
<path d="M34.833 0.385498L28.0415 20.9065H31.9182L32.6858 18.6103C32.7946 18.2792 32.9928 18.0794 33.4087 18.0794H39.6075C40.0234 18.0794 40.2216 18.2772 40.3304 18.6103L41.0979 20.9065H44.9747L38.1851 0.385498H34.833ZM38.3833 14.4998H34.6368C34.2423 14.4998 34.0227 14.2569 34.1548 13.8592L36.1253 7.89525C36.3002 7.36625 36.7393 7.36625 36.9142 7.89525L38.8652 13.8592C38.9954 14.2784 38.7778 14.4998 38.3833 14.4998Z" fill="#222222"/>
<path d="M57.309 12.5347C57.309 13.242 56.8058 13.3752 56.4774 12.7346L50.2338 0.385498H45.4807V20.9046H49.2272V8.75731C49.2272 8.05003 49.7305 7.91876 50.0589 8.55943L56.522 20.9065H61.0575V0.385498H57.311V12.5347H57.309Z" fill="#222222"/>
<path d="M19.2128 16.5982V0.385498H15.4663V20.9046H27.4929V17.327H19.9357C19.5198 17.327 19.2128 17.0175 19.2128 16.5982Z" fill="#222222"/>
<path d="M11.3697 10.1484C12.662 9.2001 13.4082 7.78553 13.4082 6.03985C13.4082 2.70523 11.2376 0.385498 7.73398 0.385498H0V20.9046H8.12846C11.3931 20.9046 13.824 18.387 13.824 14.9407C13.824 12.954 12.9029 11.1868 11.3697 10.1484ZM3.74651 4.29613C3.74651 3.96502 3.94278 3.76518 4.27312 3.76518H7.03248C8.43548 3.76518 9.42069 4.87019 9.42069 6.26125C9.42069 7.67385 8.43548 8.75731 7.03248 8.75731H4.27312C3.94472 8.75731 3.74651 8.51437 3.74651 8.20481V4.29613ZM7.09855 17.4818H4.31587C3.98747 17.4818 3.74651 17.2388 3.74651 16.9077V12.7326C3.74651 12.3799 3.98747 12.137 4.31587 12.137H7.09855C8.74251 12.137 9.77047 13.2851 9.77047 14.7878C9.77047 16.3121 8.74057 17.4818 7.09855 17.4818Z" fill="#222222"/>
<path d="M79.9727 10.6465C79.9727 14.4278 76.9199 17.5058 73.1695 17.5058C69.4191 17.5058 66.3663 14.4298 66.3663 10.6465C66.3663 6.8632 69.4191 3.7872 73.1695 3.7872V0C67.3477 0 62.6101 4.77662 62.6101 10.6465C62.6101 16.5164 67.3477 21.293 73.1695 21.293C78.9914 21.293 83.7289 16.5164 83.7289 10.6465H79.9727Z" fill="#222222"/>
</svg>
