<svg width="17" height="10" viewBox="0 0 17 10" fill="none" xmlns="http://www.w3.org/2000/svg">
<path d="M16.6099 0.677504C16.7285 0.286833 16.6099 0 16.0479 0H14.1882C13.7155 0 13.4973 0.247681 13.3787 0.520895C13.3787 0.520895 12.4325 2.80449 11.0927 4.28717C10.6596 4.71615 10.462 4.85318 10.2256 4.85318C10.107 4.85318 9.93002 4.717 9.93002 4.32633V0.677504C9.93002 0.20938 9.79939 0 9.40494 0H6.48223C6.18746 0 6.00957 0.21704 6.00957 0.423015C6.00957 0.867308 6.67902 0.969444 6.74863 2.21806V4.93063C6.74863 5.52558 6.64035 5.63282 6.40402 5.63282C5.77325 5.63282 4.24013 3.33986 3.33006 0.714954C3.15131 0.205975 2.97256 0 2.49733 0H0.637652C0.106562 0 0 0.247681 0 0.520895C0 1.0086 0.630777 3.42838 2.93561 6.62865C4.47216 8.81437 6.63777 9.99915 8.60831 9.99915C9.7908 9.99915 9.93689 9.73615 9.93689 9.28249V7.63129C9.93689 7.10529 10.0486 6.99974 10.4233 6.99974C10.6992 6.99974 11.1718 7.13593 12.2752 8.19049C13.5359 9.4391 13.7439 10 14.4537 10H16.3134C16.8445 10 17.1101 9.737 16.9571 9.21781C16.7895 8.70032 16.1871 7.94961 15.3887 7.05932C14.9556 6.55205 14.3051 6.00562 14.1083 5.7324C13.8324 5.38088 13.9115 5.22513 14.1083 4.91276C14.1083 4.91276 16.3736 1.74994 16.6099 0.677504Z" fill="#333333"/>
</svg>
